<svg width="86" height="86" viewBox="0 0 86 86" fill="none" xmlns="http://www.w3.org/2000/svg">
<path fill-rule="evenodd" clip-rule="evenodd" d="M53.75 82.4167L20.3927 60.9167H0V25.0833H20.3927L53.75 3.58334V82.4167ZM21.5 28.6344V57.3656L50.1667 75.8448V10.1552L21.5 28.6344ZM72.4837 13.5163C80.8221 20.6436 86 31.2252 86 43.0036C86 54.7856 80.8221 65.3672 72.4908 72.4908L69.9538 69.9538C77.6078 63.5361 82.4167 53.8253 82.4167 43C82.4167 32.1748 77.6078 22.4639 69.9538 16.0462L72.4837 13.5163V13.5163ZM61.9881 24.0119C67.4383 28.5162 70.8604 35.3603 70.8604 43C70.8604 50.6397 67.4383 57.4838 61.9881 61.9881L59.4583 59.4583C64.2277 55.6492 67.2771 49.6793 67.2771 43.0072C67.2771 36.3314 64.2277 30.3616 59.4511 26.5489L61.9881 24.0119V24.0119ZM17.9167 28.6667H3.58333V57.3333H17.9167V28.6667Z" fill="#FFC42C"/>
</svg>
