<svg width="39" height="39" viewBox="0 0 39 39" fill="none" xmlns="http://www.w3.org/2000/svg">
<g clip-path="url(#clip0_247_24)">
<path d="M21.3037 9.295L20.3775 13.9912C20.1825 14.95 20.4425 15.9413 21.06 16.6888C21.6775 17.4363 22.5875 17.875 23.5625 17.875H32.5V19.63L28.3238 29.25H15.1775C14.885 29.25 14.625 28.99 14.625 28.6975V15.9575L21.3037 9.295M22.75 3.25L12.3338 13.6662C11.7163 14.2837 11.375 15.1125 11.375 15.9737V28.6975C11.375 30.7937 13.0813 32.5 15.1775 32.5H28.34C29.4938 32.5 30.55 31.8988 31.135 30.9238L35.4737 20.93C35.6525 20.5238 35.75 20.085 35.75 19.63V17.875C35.75 16.0875 34.2875 14.625 32.5 14.625H23.5625L25.0575 7.06875C25.1388 6.71125 25.09 6.32125 24.9275 5.99625C24.5538 5.265 24.0825 4.59875 23.4975 4.01375L22.75 3.25ZM6.5 14.625H3.25V32.5H6.5C7.39375 32.5 8.125 31.7688 8.125 30.875V16.25C8.125 15.3562 7.39375 14.625 6.5 14.625Z" fill="#FFC42C"/>
</g>
<defs>
<clipPath id="clip0_247_24">
<rect width="39" height="39" fill="white"/>
</clipPath>
</defs>
</svg>
